<svg xmlns="http://www.w3.org/2000/svg" viewBox="0 0 200 200" width="200" height="200">
  <defs>
    <pattern id="leafPattern" patternUnits="userSpaceOnUse" width="200" height="200" x="0" y="0">
      <g fill="none" stroke="#228B22" stroke-width="1.5" stroke-linecap="round" stroke-linejoin="round" opacity="0.3">
        <!-- Leaf 1 (top-left) -->
        <path d="M20 100 Q40 60 60 100 T100 140"/>
        <path d="M40 80 Q50 70 60 80"/>
        <path d="M80 120 Q90 110 100 120"/>
        <!-- Leaf 2 (top-right) -->
        <path d="M140 80 Q160 40 180 80 T140 120"/>
        <path d="M160 60 Q170 50 180 60"/>
        <path d="M120 100 Q130 90 140 100"/>
        <!-- Leaf 3 (bottom-left) -->
        <path d="M60 160 Q80 120 100 160 T60 200"/>
        <path d="M80 140 Q90 130 100 140"/>
        <path d="M40 180 Q50 170 60 180"/>
        <!-- Leaf 4 (bottom-right) -->
        <path d="M120 140 Q140 100 160 140 T120 180"/>
        <path d="M140 120 Q150 110 160 120"/>
        <path d="M100 160 Q110 150 120 160"/>
        <!-- Central Leaf -->
        <path d="M100 100 Q80 60 60 100 T100 140 Q120 60 100 100"/>
        <path d="M90 90 Q95 85 100 90"/>
        <path d="M110 110 Q105 105 100 110"/>
      </g>
    </pattern>
  </defs>
  <rect width="200" height="200" fill="url(#leafPattern)"/>
</svg>
